<svg width="652" height="211" viewBox="0 0 652 211" fill="none" xmlns="http://www.w3.org/2000/svg">
<path d="M299.767 3.21338H308.459L326.386 39.2598L344.495 3.21338H354.273V4.11907C347.935 4.66248 347.392 5.38703 347.573 12.2703L348.116 36.3616C348.297 43.426 348.66 44.3317 354.998 44.6939V45.5996H338.338V44.6939C344.313 44.1505 344.495 43.2448 344.495 36.3616L344.313 7.74183H343.77L325.3 44.8751H324.756L308.096 10.0966H307.915L307.01 28.3915C306.829 31.652 306.829 33.8257 306.829 35.6371C306.829 42.158 307.553 43.9694 313.891 44.6939V45.5996H297.594V44.6939C301.758 44.3317 303.207 43.2448 303.75 40.5277C304.294 38.5352 304.837 34.3691 305.199 27.4858L306.105 14.9873C306.105 13.176 306.286 11.7269 306.286 10.4589C306.286 5.56817 305.199 4.84362 299.948 4.11907L299.767 3.21338Z" fill="white"/>
<path d="M354.998 46.143H337.975V44.6939H338.157C343.951 44.3317 344.132 43.426 344.132 36.5427L343.77 8.28521L325.481 45.2373H324.575V45.0562L308.096 10.64L307.191 28.3915C307.01 31.2897 307.01 33.6445 307.01 35.637C307.01 42.158 307.734 43.7882 313.891 44.3316H314.072V45.7808H297.231V44.3316H297.412C301.396 43.9694 302.845 43.0637 303.388 40.3466C303.75 38.7164 304.294 35.0936 304.837 27.3047L305.742 14.8062V13.9005C305.742 12.4514 305.742 11.3646 305.742 10.2777C305.742 5.74929 304.837 4.84361 299.585 4.11906H299.404V2.66992H308.459V2.85107L326.205 38.5353L344.132 2.85107H354.273V4.30015H354.092C347.754 4.84357 347.392 5.56815 347.573 12.0891L348.116 36.1804C348.297 43.0637 348.478 43.7882 354.816 44.3316H354.998V46.143ZM338.338 45.5996H354.635V45.0562C348.297 44.5128 347.935 43.426 347.754 36.3616L347.211 12.2703C347.03 5.38702 347.573 4.66246 353.911 3.93791V3.39446H344.495L326.386 39.622L308.278 3.39446H299.948V3.93791C304.837 4.48132 306.286 5.56816 306.286 10.4589C306.286 11.3646 306.286 12.6325 306.286 14.0816V14.9873L305.38 27.4858C304.837 35.2748 304.294 38.8975 303.931 40.7089C303.388 43.6071 301.758 44.6939 297.775 45.0562V45.5996H313.71V45.0562C307.553 44.3316 306.648 42.5203 306.648 35.8182C306.648 33.8257 306.648 31.2897 306.829 28.3915L307.734 9.91544H308.278V10.0966L324.937 44.8751H325.3L343.77 7.74182H344.313L344.495 36.5427C344.495 43.426 344.495 44.6939 338.338 45.2373V45.5996Z" fill="white"/>
<path d="M411.858 44.8751C417.834 44.694 418.377 43.426 418.377 37.9918V10.8211C418.377 5.387 417.834 4.66244 412.039 4.30016V3.21338H428.156C434.856 3.21338 442.281 5.20588 442.281 13.9005C442.281 19.6969 439.202 23.1385 433.951 25.4933C435.037 27.667 437.934 32.0143 439.926 34.7314C443.186 38.7164 447.894 44.5128 451.335 45.4185L451.154 46.3242C444.997 46.3242 441.737 45.9619 431.415 29.1161C429.786 26.5801 427.613 26.5802 421.999 26.5802V37.8107C421.999 43.2448 422.542 44.3317 428.337 44.6939V45.5996H411.677L411.858 44.8751ZM426.164 25.4933C430.148 25.4933 432.683 24.9499 434.494 23.5008C436.667 21.6894 438.116 18.9723 438.116 15.1684C438.116 7.92292 433.407 4.84361 426.345 4.84361C424.534 4.84361 423.448 4.84362 422.723 5.02476C422.361 5.02476 422.18 5.20587 422.18 6.47384V25.6745L426.164 25.4933Z" fill="white"/>
<path d="M451.516 46.6865H451.335C444.816 46.6865 441.556 45.9619 431.415 29.4784C429.786 27.1236 427.975 27.1235 422.361 27.1235V38.173C422.361 43.426 422.904 44.5128 428.518 44.6939H428.699V46.143H411.677V44.6939H411.858C417.653 44.5128 418.196 43.426 418.196 38.173V11.0023C418.196 5.74929 417.653 5.02474 412.22 4.66246H412.039V3.21338H428.337C434.856 3.21338 442.643 5.02476 442.643 14.0817C442.643 19.5158 440.108 23.1385 434.494 25.6745C435.58 27.667 438.297 31.8332 440.47 34.7314C443.729 38.5353 448.437 44.5128 451.878 45.4185H452.059L451.516 46.6865ZM421.818 26.5802H421.999C427.613 26.5802 429.967 26.5801 431.778 29.1161C442.099 45.9619 445.359 46.143 451.154 46.143L451.335 45.5996C447.713 44.5128 443.186 38.7164 439.926 34.9125C437.934 32.1954 435.037 27.8481 433.77 25.4933L433.588 25.3122H433.77C439.383 22.7762 441.918 19.1535 441.918 13.9005C441.918 5.20588 434.313 3.39447 428.156 3.39447H412.401V3.93792C418.015 4.3002 418.739 5.20585 418.739 10.64V37.8107C418.739 43.2448 418.196 44.5128 412.22 44.8751V45.4185H428.518V44.8751C422.723 44.5128 422.18 43.2448 422.18 37.8107V26.5802H421.818ZM426.164 25.6745H421.818V6.29269C421.818 5.387 421.999 4.48131 422.723 4.48131C423.086 4.48131 424.172 4.30016 426.345 4.30016C434.132 4.30016 438.297 8.1041 438.297 14.9873C438.297 18.7912 437.029 21.6894 434.675 23.5008C432.864 25.131 430.329 25.6745 426.164 25.6745ZM422.361 25.3122H426.345C430.329 25.3122 432.683 24.7687 434.494 23.3196C436.848 21.5083 437.934 18.7912 437.934 15.1684C437.934 6.83609 431.597 5.02476 426.345 5.02476C424.353 5.02476 423.267 5.02471 422.723 5.20585C422.542 5.20585 422.361 5.20587 422.361 6.47384V25.3122Z" fill="white"/>
<path d="M511.636 1.58301C511.998 2.30756 512.361 2.66987 512.904 3.03214C513.447 3.21328 514.171 3.21329 515.258 3.21329H542.964L543.507 4.11898C533.185 17.1609 522.501 30.384 512.361 43.7882C514.896 43.9693 520.872 44.1504 525.761 44.1504C538.256 44.1504 540.61 42.5202 544.05 34.7313L545.137 34.9124C544.594 36.7238 543.507 42.5202 542.602 45.7807H506.747L506.566 45.0561C516.888 31.6519 527.391 18.61 537.894 4.84352H524.493C514.352 4.84352 513.266 6.47374 511.093 13.5381H509.825C510.188 10.0965 510.55 5.56804 510.731 1.58301H511.636Z" fill="white"/>
<path d="M542.783 46.1429H506.747L506.385 45.2373C510.912 39.2597 515.801 33.2822 520.328 27.3046C525.942 20.2402 531.737 12.8136 537.531 5.38692H524.674C524.493 5.38692 524.312 5.38692 524.131 5.38692C514.534 5.38692 513.628 7.19832 511.455 13.9004V14.0816H509.825V13.9004C510.187 10.4588 510.55 5.93034 510.731 1.94531V1.76416H511.998V1.94531C512.36 2.66986 512.723 3.03216 513.085 3.2133C513.628 3.39443 514.352 3.39439 515.258 3.39439H542.964L543.507 4.48123L540.066 8.82853C531.012 20.2402 521.596 32.0142 512.542 43.9693C515.258 44.1505 520.871 44.3316 525.58 44.3316C538.256 44.3316 540.248 42.5202 543.688 35.0935V34.9124L545.318 35.0935V35.2747C545.137 36.1804 544.594 37.9918 544.231 39.9843C543.688 41.9768 543.145 44.3316 542.783 46.1429ZM506.928 45.5996H542.421C542.783 43.9693 543.326 41.7956 543.869 39.8031C544.231 37.9917 544.775 36.1804 544.956 35.2747L544.231 35.0935C540.972 42.5202 538.618 44.5127 525.761 44.5127C521.053 44.5127 514.896 44.3316 512.36 44.1504H511.998L512.179 43.7882C521.234 31.8331 530.65 19.878 539.885 8.28514L543.145 4.11899L542.783 3.57554H515.258C514.171 3.57554 513.447 3.57553 512.904 3.39439C512.36 3.21325 511.998 2.66986 511.455 1.94531H510.912C510.912 5.7492 510.55 10.0965 510.187 13.5381H511.093C513.266 6.65488 514.352 4.66239 524.674 4.84353H538.437L538.256 5.20577C532.461 12.8136 526.485 20.2402 520.871 27.4858C516.344 33.2822 511.636 39.2597 506.928 45.2373V45.5996Z" fill="white"/>
<path d="M298.861 126.568C304.475 126.387 305.199 125.119 305.199 120.228V92.3329C305.199 87.4422 304.656 86.1742 298.861 85.9931V85.0874H327.835C327.835 88.7102 328.197 92.333 328.378 95.5934L327.11 95.7745C325.843 88.529 324.032 86.7176 316.245 86.7176H310.632C308.821 86.7176 308.821 86.8988 308.821 88.529V105.013H316.607C322.945 105.013 323.489 104.469 324.756 99.7596H325.843V112.983H324.756C323.67 107.73 323.126 106.824 316.607 106.824H308.821V120.047C308.821 124.938 309.364 126.025 316.245 126.387V127.293H299.042L298.861 126.568Z" fill="white"/>
<path d="M316.245 127.655H298.499V126.206H298.68C304.294 126.025 304.656 124.938 304.656 120.047V92.1517C304.656 87.261 304.113 86.1742 298.68 85.993H298.499V84.5439H327.835V84.7251C327.835 87.9856 328.016 91.0649 328.378 93.9631L328.559 95.2311L326.929 95.4122V95.2311C325.662 87.9856 323.851 86.3553 316.245 86.3553H310.632C309.002 86.3553 309.002 86.3553 309.002 87.9856V104.288H316.607C322.945 104.288 323.308 103.745 324.575 99.2161V99.035H326.205V112.62H324.575V112.439C323.489 107.186 322.945 106.462 316.607 106.462H309.002V119.504C309.002 124.394 309.545 125.3 316.245 125.662H316.426L316.245 127.655ZM299.042 127.292H315.883V126.749C309.183 126.387 308.459 125.119 308.459 120.228V106.824H316.426C322.764 106.824 323.489 107.73 324.756 112.983H325.481V100.303H324.756C323.67 104.831 322.945 105.556 316.426 105.556H308.459V88.8912C308.459 87.0799 308.64 86.7176 310.632 86.7176H316.245C323.851 86.7176 326.024 88.3479 327.291 95.5934H328.197V94.6877C328.016 91.7895 327.654 88.7101 327.654 85.6308H299.223V86.1742C304.837 86.5365 305.561 87.8044 305.561 92.6952V120.59C305.561 125.481 305.018 126.93 299.223 127.111L299.042 127.292Z" fill="white"/>
<path d="M333.267 126.568C339.243 126.387 339.786 125.119 339.786 119.685V92.6952C339.786 87.4422 339.243 86.1742 333.267 85.8119V84.9062H349.746V85.8119C343.951 86.1742 343.227 87.2611 343.227 92.6952V119.685C343.227 125.119 343.77 126.206 349.746 126.568V127.474H333.267V126.568Z" fill="white"/>
<path d="M349.927 127.655H333.086V126.206H333.267C339.062 126.025 339.605 124.938 339.605 119.685V92.6952C339.605 87.4422 339.062 86.3553 333.267 86.1742H333.086V84.7251H349.927V86.1742H349.746C343.951 86.5365 343.408 87.6233 343.408 92.6952V119.685C343.408 124.938 343.951 126.025 349.746 126.206H349.927V127.655ZM333.629 127.293H349.565V126.749C343.77 126.387 343.046 125.119 343.046 119.685V92.6952C343.046 87.4422 343.589 85.9931 349.565 85.6308V85.0873H333.629V85.6308C339.424 85.9931 340.148 87.261 340.148 92.6952V119.685C340.148 125.119 339.605 126.387 333.629 126.749V127.293Z" fill="white"/>
<path d="M354.454 126.568C358.438 126.387 360.43 124.938 360.973 122.945C361.517 120.953 361.698 117.149 361.698 110.266V95.5934C361.698 89.6159 361.335 89.9782 360.068 88.3479C358.981 86.8988 357.533 86.1742 353.911 85.8119V84.9062H362.241L393.569 120.772H393.75V101.39C393.75 88.1667 393.75 86.3554 385.782 85.8119V84.9062H402.623V85.8119C398.639 86.1742 397.009 87.4422 396.285 89.4347C395.742 91.6084 395.561 95.05 395.561 101.39V127.836H394.836L363.69 92.1518H363.509V110.266C363.509 117.149 363.69 120.953 364.052 122.764C364.595 124.938 366.768 126.025 371.295 126.387V127.293H354.273V126.568H354.454Z" fill="white"/>
<path d="M395.923 128.198H394.836L363.69 92.6951V110.447C363.69 117.149 363.871 120.953 364.233 122.945C364.776 125.119 366.949 126.206 371.295 126.387H371.476V127.836H354.092V126.387H354.273C357.895 126.206 359.887 124.938 360.611 122.945C361.154 120.953 361.336 117.33 361.336 110.265V95.5934C361.336 90.3404 361.154 89.9781 360.249 88.8912C360.068 88.7101 360.068 88.7101 359.887 88.5289C358.8 87.261 357.533 86.5364 353.911 85.993H353.73V84.5439H362.422L393.569 120.228V101.209C393.569 88.1667 393.569 86.3553 385.782 85.8119H385.601V84.3628H402.804V85.8119H402.623C399.001 86.1741 397.19 87.261 396.466 89.2535C395.742 91.4272 395.742 95.231 395.742 101.209L395.923 128.198ZM395.198 127.655H395.561V101.39C395.561 95.4122 395.561 91.6083 396.285 89.4346C397.009 87.261 399.001 85.9931 402.623 85.6308V85.0873H386.144V85.6308C394.112 86.1742 394.112 88.3478 394.112 101.39V120.953H393.569L362.241 85.0873H354.273V85.6308C357.895 85.9931 359.344 86.8987 360.43 88.1667C360.611 88.3478 360.611 88.5289 360.792 88.5289C361.698 89.6158 362.06 89.9781 362.06 95.4122V110.084C362.06 117.149 361.879 120.772 361.336 122.764C360.792 124.938 358.619 126.206 354.817 126.387V126.93H371.295V126.387C366.949 126.025 364.776 124.757 364.052 122.583C363.509 120.59 363.509 116.786 363.509 110.084V91.7895H363.871L395.198 127.655Z" fill="white"/>
<path d="M433.77 126.568C437.572 126.024 439.021 125.662 439.021 124.032C439.021 122.221 437.029 116.968 434.494 110.628H418.74C418.015 111.896 414.756 121.134 414.756 123.126C414.756 125.481 416.567 125.843 420.369 126.387V127.292H404.977V126.387C409.685 125.481 410.591 124.756 413.126 118.779L427.794 84.1816L428.699 83.8193L433.226 96.3178C436.305 104.831 439.383 113.345 441.918 119.866C443.91 124.938 444.454 125.662 449.162 126.387V127.292H433.589L433.77 126.568ZM427.069 90.1592C424.353 96.1367 421.637 102.658 419.464 108.454H433.77L427.069 90.1592Z" fill="white"/>
<path d="M449.524 127.655H433.588V126.206H433.77C437.572 125.662 438.84 125.3 438.84 123.851C438.84 122.039 436.486 116.243 434.313 110.809H418.921C418.196 112.439 414.937 121.134 414.937 123.126C414.937 125.119 416.385 125.662 420.369 126.206H420.55V127.655H404.615V126.387H404.796C409.504 125.481 410.229 124.938 412.764 118.779L427.613 84.1816L428.699 83.6382V83.8193L433.226 96.3178C433.951 98.1292 434.494 99.9406 435.218 101.752C437.572 108.454 439.926 114.613 441.918 119.866C443.91 124.938 444.454 125.481 449.162 126.206H449.343L449.524 127.655ZM433.951 127.292H449.162V126.749C444.454 126.024 443.91 125.119 441.918 120.047C439.926 114.975 437.572 108.635 435.218 101.933C434.494 100.122 433.951 98.3104 433.226 96.499L428.699 84.1816L428.156 84.3627L413.488 118.96C410.953 125.119 410.047 125.843 405.339 126.749V127.292H420.369V126.749C416.748 126.206 414.756 125.662 414.756 123.307C414.756 121.134 418.196 111.896 418.921 110.628V110.447H434.856V110.628C437.753 117.692 439.383 122.402 439.383 124.032C439.383 125.843 437.753 126.206 434.132 126.749L433.951 127.292ZM434.132 108.635H419.283L419.464 108.273C421.818 102.295 424.534 95.7744 427.069 89.978V89.7969H427.432L434.132 108.635ZM420.007 108.092H433.588L427.251 90.5214C424.715 96.1367 422.18 102.295 420.007 108.092Z" fill="white"/>
<path d="M452.421 126.568C456.405 126.387 458.397 124.938 458.94 122.945C459.484 120.953 459.665 117.149 459.665 110.266V95.5934C459.665 89.6159 459.303 89.9782 458.035 88.3479C456.948 86.8988 455.5 86.1742 451.878 85.8119V84.9062H460.208L491.536 120.772H491.717V101.39C491.717 88.1667 491.717 86.3554 483.749 85.8119V84.9062H500.59V85.8119C496.606 86.1742 494.976 87.4422 494.252 89.4347C493.709 91.6084 493.528 95.05 493.528 101.39V127.836H492.803L461.476 92.1518V110.266C461.476 117.149 461.657 120.953 462.019 122.764C462.562 124.938 464.735 126.025 469.262 126.387V127.293H452.421V126.568Z" fill="white"/>
<path d="M494.071 128.198H492.984L461.838 92.8763V110.628C461.838 117.33 462.019 121.134 462.381 123.126C462.924 125.3 465.097 126.387 469.443 126.568H469.624V128.017H452.24V126.568H452.421C456.043 126.387 458.035 125.119 458.759 123.126C459.303 121.134 459.484 117.511 459.484 110.447V95.7745C459.484 90.5215 459.302 90.1592 458.397 89.0724C458.216 88.8913 458.216 88.8912 458.035 88.7101C456.948 87.4421 455.681 86.7176 452.059 86.1742H451.878V84.7251H460.57L491.717 120.409V101.39C491.717 88.3478 491.717 86.5364 483.93 85.993H483.749V84.5439H500.952V85.993H500.771C497.149 86.3553 495.338 87.4421 494.614 89.4346C493.89 91.6083 493.89 95.4122 493.89 101.39L494.071 128.198ZM493.165 127.655H493.528V101.39C493.528 95.4122 493.528 91.6083 494.252 89.4346C494.976 87.261 496.968 85.9931 500.59 85.6308V85.0873H484.111V85.6308C492.079 86.1742 492.079 88.3478 492.079 101.39V120.953H491.536L460.208 85.0873H452.24V85.6308C455.862 85.9931 457.311 86.8987 458.397 88.1667C458.578 88.3478 458.578 88.5289 458.759 88.5289C459.665 89.6158 460.027 89.9781 460.027 95.4122V110.084C460.027 117.149 459.846 120.772 459.302 122.764C458.759 124.938 456.586 126.206 452.783 126.387V126.93H469.262V126.387C464.916 126.025 462.743 124.757 462.019 122.583C461.476 120.59 461.476 116.787 461.476 110.084V91.7895H461.838L493.165 127.655Z" fill="white"/>
<path d="M547.672 114.975C546.767 118.598 545.137 124.213 544.05 126.387C541.877 126.749 535.539 128.198 530.469 128.198C512.723 128.198 505.117 116.786 505.117 106.462C505.117 92.8762 516.525 83.6382 531.918 83.6382C538.618 83.6382 542.783 85.0873 544.775 85.4496C545.318 88.8912 545.68 92.1516 546.042 95.9555L544.956 96.1367C543.145 88.1666 538.437 85.2684 529.564 85.2684C516.163 85.2684 510.006 94.1441 510.006 104.831C510.006 118.054 517.974 126.568 529.926 126.568C539.342 126.568 543.326 121.496 546.586 114.432L547.672 114.975Z" fill="white"/>
<path d="M530.469 128.742C522.32 128.742 515.439 126.206 510.912 121.677C507.109 117.873 504.936 112.439 504.936 106.824C504.936 93.4196 516.344 83.6382 531.918 83.6382C537.35 83.6382 541.153 84.5439 543.507 85.2684C544.05 85.4496 544.413 85.4496 544.775 85.6307H544.956V85.8118C545.499 89.2534 545.861 92.3328 546.223 96.1367V96.499L544.594 96.6801V96.499C542.783 88.8912 538.437 85.6307 529.383 85.6307C515.077 85.6307 510.187 95.5933 510.187 104.831C510.187 117.873 517.974 126.387 529.926 126.387C538.98 126.387 542.783 121.858 546.223 114.432V114.25L547.853 114.613V114.794C547.129 117.33 545.499 123.851 544.232 126.387V126.568H544.05C543.507 126.568 542.783 126.749 542.058 126.93C539.161 127.655 534.272 128.742 530.469 128.742ZM531.918 84.0004C516.525 84.0004 505.298 93.6007 505.298 106.643C505.298 112.077 507.471 117.33 511.093 121.134C515.62 125.662 522.32 128.017 530.288 128.017C534.272 128.017 538.98 127.111 541.877 126.568C542.783 126.387 543.326 126.206 543.869 126.206C544.956 123.67 546.586 117.692 547.31 115.156L546.586 114.975C543.145 122.402 538.98 127.111 529.926 127.111C517.612 127.111 509.825 118.417 509.825 105.194C509.825 95.5933 515.077 85.4496 529.564 85.4496C538.618 85.4496 543.145 88.71 545.137 96.3178L545.861 96.1367C545.499 92.5139 545.137 89.2534 544.594 85.993C544.232 85.993 543.869 85.8118 543.507 85.6307C541.153 85.0873 537.169 84.0004 531.918 84.0004Z" fill="white"/>
<path d="M551.656 126.568C557.632 126.387 558.175 125.119 558.175 119.685V92.6952C558.175 87.4422 557.632 86.1742 551.656 85.8119V84.9062H568.135V85.8119C562.34 86.1742 561.616 87.2611 561.616 92.6952V119.685C561.616 125.119 562.159 126.206 568.135 126.568V127.474H551.656V126.568Z" fill="white"/>
<path d="M568.316 127.655H551.475V126.206H551.656C557.451 126.025 557.994 124.938 557.994 119.685V92.6952C557.994 87.4422 557.451 86.3553 551.656 86.1742H551.475V84.7251H568.316V86.1742H568.135C562.34 86.5365 561.797 87.6233 561.797 92.6952V119.685C561.797 124.938 562.34 126.025 568.135 126.206H568.316V127.655ZM551.837 127.293H567.773V126.749C561.978 126.387 561.253 125.119 561.253 119.685V92.6952C561.253 87.4422 561.797 85.9931 567.773 85.6308V85.0873H551.837V85.6308C557.632 85.9931 558.356 87.261 558.356 92.6952V119.685C558.356 125.119 557.813 126.387 551.837 126.749V127.293Z" fill="white"/>
<path d="M600.549 126.568C604.352 126.024 605.8 125.662 605.8 124.032C605.8 122.221 603.808 116.968 601.273 110.628H585.519C584.794 111.896 581.535 121.134 581.535 123.126C581.535 125.481 583.346 125.843 587.149 126.387V127.292H571.756V126.387C576.465 125.481 577.37 124.756 579.905 118.779L594.573 84.1816L595.479 83.8193L600.006 96.3178C603.084 104.831 606.163 113.345 608.698 119.866C610.69 124.938 611.233 125.662 615.941 126.387V127.292H600.368L600.549 126.568ZM594.03 90.1592C591.314 96.1367 588.597 102.658 586.424 108.454H600.73L594.03 90.1592Z" fill="white"/>
<path d="M616.303 127.655H600.368V126.206H600.549C604.352 125.662 605.619 125.3 605.619 123.851C605.619 122.039 603.265 116.243 601.092 110.809H585.7C584.976 112.439 581.716 121.134 581.716 123.126C581.716 125.119 583.165 125.662 587.149 126.206H587.33V127.655H571.394V126.387H571.575C576.284 125.481 577.008 124.938 579.543 118.779L594.392 84.1816L595.479 83.6382V83.8193L600.006 96.3178C600.73 98.1292 601.273 99.9406 601.998 101.752C604.352 108.454 606.706 114.613 608.698 119.866C610.69 124.938 611.233 125.481 615.941 126.206H616.122L616.303 127.655ZM600.911 127.292H616.122V126.749C611.414 126.024 610.871 125.119 608.879 120.047C606.887 114.975 604.533 108.635 602.179 101.933C601.454 100.122 600.911 98.3104 600.187 96.499L595.66 84.1816L595.116 84.3627L580.449 118.96C577.913 125.119 577.008 125.843 572.3 126.749V127.292H587.33V126.749C583.708 126.206 581.716 125.662 581.716 123.307C581.716 121.134 585.157 111.896 585.881 110.628V110.447H601.817V110.628C604.714 117.692 606.344 122.402 606.344 124.032C606.344 125.843 604.714 126.206 601.092 126.749L600.911 127.292ZM601.092 108.635H586.243L586.424 108.273C588.778 102.295 591.495 95.7744 594.03 89.978V89.7969H594.392L601.092 108.635ZM586.787 108.092H600.368L594.03 90.5214C591.676 96.1367 588.96 102.295 586.787 108.092Z" fill="white"/>
<path d="M651.977 116.787C651.434 118.96 649.985 124.394 649.442 127.474H619.925V126.568C625.72 126.387 626.263 125.119 626.263 119.504V92.6952C626.263 87.4422 625.72 86.1742 619.744 85.8119V84.9062H636.585V85.8119C630.428 86.1742 629.704 87.2611 629.704 92.6952V118.417C629.704 125.662 631.333 125.843 638.215 125.843C642.198 125.843 645.458 124.938 647.088 123.308C647.993 122.04 649.623 119.685 650.709 116.787H651.977Z" fill="white"/>
<path d="M649.804 127.655H619.744V126.206H619.925C625.539 126.025 625.901 124.938 625.901 119.322V92.514C625.901 87.261 625.358 86.1742 619.563 85.993H619.382V84.5439H636.585V85.993H636.404C630.247 86.3553 629.885 87.4421 629.885 92.514V118.236C629.885 125.3 631.152 125.481 638.215 125.481C642.38 125.481 645.458 124.575 646.907 123.126C648.537 120.953 649.623 118.779 650.347 116.605V116.424H651.977V116.605C651.796 117.511 651.434 118.598 651.072 120.047C650.528 122.402 649.804 125.3 649.442 127.292L649.804 127.655ZM620.106 127.292H649.261C649.623 125.3 650.347 122.583 650.891 120.228C651.253 118.96 651.434 117.873 651.615 117.149H650.891C649.985 119.322 648.899 121.496 647.45 123.489C645.82 125.119 642.742 126.025 638.396 126.025C631.333 126.025 629.523 125.843 629.523 118.417V92.6952C629.523 87.4422 630.247 85.9931 636.404 85.6308V85.0873H619.925V85.6308C625.901 85.9931 626.444 87.261 626.444 92.6952V119.504C626.444 125.3 625.901 126.568 620.106 126.93V127.292Z" fill="white"/>
<path d="M339.243 189.966H328.016V190.872C335.802 191.415 336.165 192.502 336.165 196.668V202.646C336.165 205.544 335.259 206.631 333.267 207.174C331.275 207.899 328.197 208.261 324.575 208.261C309.545 208.261 304.113 196.668 304.113 187.068C304.113 174.57 310.994 166.962 324.032 166.962C331.094 166.962 336.346 168.773 338.519 177.287L339.605 177.106C339.062 172.939 338.7 168.954 338.519 167.143C336.165 166.418 331.094 165.332 325.299 165.332C311.899 165.332 299.404 173.12 299.404 187.974C299.404 200.835 309.907 209.891 324.756 209.891C330.008 209.891 335.259 208.442 339.605 207.356L339.243 189.966Z" fill="white"/>
<path d="M339.243 207.356C338.881 207.356 338.519 207.537 338.338 207.537C334.354 208.623 329.283 209.891 324.575 209.891C309.907 209.891 299.585 201.016 299.585 188.155C299.585 172.758 312.986 165.694 325.299 165.694C331.637 165.694 337.07 167.143 338.338 167.505C338.338 167.867 338.338 168.23 338.519 168.592C338.7 170.585 339.062 173.845 339.424 177.287H338.7C336.165 168.23 330.189 166.962 324.032 166.962C311.175 166.962 303.931 174.388 303.931 187.249C303.931 197.936 310.269 208.623 324.575 208.623C328.197 208.623 331.275 208.261 333.267 207.537C335.621 206.812 336.346 205.544 336.346 202.646V196.668C336.346 192.502 335.984 191.234 328.197 190.691V190.147H339.243V189.785H327.654V191.234H327.835C335.44 191.778 335.802 192.864 335.802 196.85V202.827C335.802 205.906 334.897 206.631 333.086 207.174C331.094 207.899 328.016 208.261 324.394 208.261C310.451 208.261 304.113 197.755 304.113 187.43C304.113 174.57 311.175 167.505 323.851 167.505C329.827 167.505 335.802 168.773 338.157 177.649V177.83L339.605 177.649V177.468C339.062 174.026 338.7 170.766 338.519 168.592C338.519 168.049 338.519 167.686 338.338 167.324V167.143H338.157C337.07 166.781 331.637 165.332 324.756 165.332C312.08 165.332 298.499 172.577 298.499 188.336C298.499 201.378 309.002 210.435 324.032 210.435C328.921 210.435 333.992 209.167 337.975 208.08C338.338 208.08 338.519 207.899 338.881 207.899L339.243 207.356Z" fill="white"/>
<path d="M347.935 208.08C353.911 207.899 354.454 206.631 354.454 201.197V174.026C354.454 168.592 353.911 167.868 348.116 167.505V166.418H364.233C370.933 166.418 378.358 168.411 378.358 177.106C378.358 182.902 375.279 186.344 370.028 188.698C371.114 190.872 374.011 195.219 376.003 197.936C379.263 201.922 383.971 207.718 387.412 208.624L387.231 209.529C381.074 209.529 377.814 209.167 367.492 192.321C365.863 189.785 363.69 189.785 358.076 189.785V201.016C358.076 206.45 358.619 207.537 364.414 207.899V208.805H347.754L347.935 208.08ZM362.422 188.698C366.406 188.698 368.941 188.155 370.752 186.706C372.925 184.895 374.374 182.177 374.374 178.374C374.374 171.128 369.665 168.049 362.603 168.049C360.792 168.049 359.706 168.049 358.981 168.23C358.619 168.23 358.438 168.411 358.438 169.679V188.88L362.422 188.698Z" fill="white"/>
<path d="M387.593 209.892H387.412C380.893 209.892 377.633 209.167 367.492 192.683C365.863 190.329 364.052 190.329 358.438 190.329V201.378C358.438 206.631 358.981 207.718 364.595 207.899H364.776V209.348H347.754V207.899H347.935C353.73 207.718 354.273 206.631 354.273 201.378V174.207C354.273 168.954 353.73 168.23 348.297 167.868H348.116V166.418H364.414C370.933 166.418 378.72 168.23 378.72 177.287C378.72 182.721 376.184 186.344 370.571 188.88C371.657 190.872 374.374 195.038 376.547 197.936C379.806 201.74 384.514 207.718 387.955 208.624H388.136L387.593 209.892ZM358.076 189.785H358.257C363.871 189.785 366.225 189.785 368.036 192.321C378.358 209.167 381.617 209.348 387.412 209.348L387.593 208.805C383.971 207.718 379.444 201.921 376.184 198.118C374.193 195.401 371.295 191.053 370.028 188.698L369.847 188.517H370.028C375.641 185.981 378.176 182.359 378.176 177.106C378.176 168.411 370.571 166.6 364.414 166.6H348.66V167.143C354.273 167.505 354.998 168.411 354.998 173.845V201.016C354.998 206.45 354.454 207.718 348.478 208.08V208.624H364.776V208.08C358.981 207.718 358.438 206.45 358.438 201.016L358.076 189.785ZM362.422 188.88H358.076V169.498C358.076 168.592 358.257 167.686 358.981 167.686C359.344 167.686 360.43 167.505 362.603 167.505C370.39 167.505 374.555 171.309 374.555 178.192C374.555 181.996 373.287 184.895 370.933 186.706C368.941 188.155 366.587 188.88 362.422 188.88ZM358.438 188.336H362.422C366.406 188.336 368.76 187.793 370.571 186.344C372.925 184.532 374.011 181.815 374.011 178.192C374.011 169.86 367.673 168.049 362.422 168.049C360.43 168.049 359.344 168.049 358.8 168.23C358.619 168.23 358.438 168.23 358.438 169.498V188.336Z" fill="white"/>
<path d="M430.691 171.128C440.108 180.909 438.84 195.038 429.605 204.095C420.731 212.789 406.969 213.152 398.277 204.095C390.309 195.943 388.679 181.452 399.544 170.946C407.693 163.157 421.456 161.708 430.691 171.128ZM400.269 199.566C409.504 208.985 421.637 209.529 429.605 201.921C436.124 195.581 437.753 185.256 429.242 176.562C418.558 165.512 407.15 166.056 399.182 173.845C392.844 180.003 391.215 190.147 400.269 199.566Z" fill="white"/>
<path d="M429.786 204.276C425.44 208.623 419.826 210.978 413.85 210.978C407.874 210.978 402.261 208.623 398.096 204.276C390.309 196.306 388.136 181.815 399.363 170.765C407.331 163.158 421.094 160.984 430.691 170.765C439.926 180.547 439.564 194.857 429.786 204.276ZM399.726 171.309C388.679 181.996 390.852 196.306 398.458 204.095C406.969 212.971 420.369 212.971 429.423 204.095C439.021 194.857 439.564 180.728 430.51 171.49C421.094 161.709 407.512 163.701 399.726 171.309ZM429.786 202.102C421.637 210.072 409.142 208.986 400.269 199.748C390.309 189.604 393.569 179.279 399.363 173.664C408.055 165.15 419.645 166.237 429.605 176.381C438.297 185.438 435.943 196.125 429.786 202.102ZM399.544 173.845C393.931 179.279 390.852 189.423 400.631 199.385C409.685 208.623 421.456 209.529 429.605 201.74C435.58 195.944 437.935 185.619 429.242 176.562C419.464 166.599 408.055 165.512 399.544 173.845Z" fill="white"/>
<path d="M483.387 186.706C483.387 195.219 482.3 200.653 477.954 205.001C475.057 207.899 470.349 209.71 465.46 209.71C461.476 209.71 457.492 208.805 454.413 206.269C450.792 203.371 448.981 199.204 448.981 191.597V174.389C448.981 168.592 448.437 167.868 442.462 167.324V166.418H458.759V167.324C452.965 167.505 452.421 168.954 452.421 174.389V189.423C452.421 201.378 457.854 206.812 467.089 206.812C477.592 206.812 481.214 198.842 481.214 186.887V183.264C481.214 175.838 481.214 173.121 480.671 170.947C480.127 168.773 478.135 167.686 473.427 167.143V166.237H490.087V167.143C486.284 167.505 484.111 168.773 483.749 170.947C483.387 173.121 483.025 175.838 483.025 183.264V186.706H483.387Z" fill="white"/>
<path d="M465.641 210.073C461.113 210.073 457.311 208.986 454.413 206.631C450.611 203.552 448.981 199.023 448.981 191.778V174.57C448.981 168.773 448.437 168.23 442.643 167.686H442.462V166.237H459.303V167.686H459.122C453.689 167.868 453.146 168.954 453.146 174.57V189.604C453.146 201.016 458.035 206.812 467.632 206.812C477.049 206.812 481.576 200.472 481.576 187.249V183.626C481.576 176.019 481.576 173.483 481.033 171.49C480.671 169.317 478.498 168.23 473.789 167.868H473.608V166.418H490.811V167.868H490.63C486.828 168.23 484.836 169.498 484.473 171.49C484.111 173.664 483.749 176.381 483.749 183.808V187.068C483.749 195.038 482.844 200.835 478.317 205.544C475.238 208.261 470.53 210.073 465.641 210.073ZM442.824 167.143C448.8 167.686 449.343 168.411 449.343 174.389V191.597C449.343 198.842 450.973 203.189 454.594 206.088C457.311 208.261 461.113 209.529 465.46 209.529C470.168 209.529 474.876 207.718 477.773 204.82C482.119 200.291 483.025 194.495 483.025 186.706V183.445C483.025 176.019 483.387 173.302 483.749 171.128C484.111 168.954 486.284 167.686 490.087 167.324V166.781H473.789V167.324C478.498 167.868 480.671 168.954 481.033 171.309C481.576 173.302 481.576 176.019 481.576 183.626V187.249C481.576 200.835 476.868 207.356 467.089 207.356C457.311 207.356 452.24 201.197 452.24 189.785V174.751C452.24 169.135 452.784 167.686 458.578 167.505V166.962H442.643L442.824 167.143Z" fill="white"/>
<path d="M494.433 208.08C500.228 207.899 500.771 206.631 500.771 201.197V174.207C500.771 168.773 500.771 167.686 494.795 167.505V166.418H510.912C515.258 166.418 525.761 166.962 525.761 178.192C525.761 188.155 516.344 192.14 509.825 191.597L504.393 190.148V201.378C504.393 206.631 504.936 207.718 511.817 208.08V208.986H494.433V208.08ZM504.574 188.698C505.298 189.061 507.109 189.785 510.369 189.785C516.344 189.785 521.415 186.706 521.415 178.736C521.415 171.309 517.069 167.868 508.739 167.868C506.928 167.868 505.841 167.868 505.298 168.049C504.755 168.049 504.574 168.23 504.574 169.679V188.698Z" fill="white"/>
<path d="M512.179 209.167H494.252V207.718H494.433C500.047 207.537 500.59 206.45 500.59 201.197V174.207C500.59 168.773 500.59 167.868 494.795 167.686H494.614V166.237H510.912C520.871 166.237 525.942 170.222 525.942 178.192C525.942 181.996 524.493 185.438 521.777 187.974C518.698 190.691 513.99 192.321 509.825 191.778L504.574 190.329V201.378C504.574 206.631 504.936 207.356 511.817 207.899H511.998L512.179 209.167ZM494.795 208.805H511.817V208.261C504.936 207.899 504.393 206.812 504.393 201.378V189.785L510.006 191.415C513.99 191.778 518.517 190.329 521.596 187.612C524.312 185.257 525.58 181.996 525.58 178.192C525.58 170.585 520.69 166.6 510.912 166.6H494.976V167.143C500.952 167.505 500.952 168.773 500.952 174.026V201.016C500.952 206.45 500.409 207.718 494.614 208.08L494.795 208.805ZM510.369 189.785C507.29 189.785 505.298 189.061 504.574 188.698H504.393V169.679C504.393 168.23 504.574 167.868 505.298 167.686C505.841 167.505 506.928 167.505 508.739 167.505C517.431 167.505 521.596 171.128 521.596 178.555C521.596 185.8 517.431 189.785 510.369 189.785ZM504.755 188.517C505.66 188.88 507.471 189.423 510.369 189.423C517.25 189.423 521.234 185.438 521.234 178.555C521.234 171.49 517.25 167.868 508.739 167.868C506.928 167.868 505.841 167.868 505.298 168.049C504.936 168.049 504.755 168.049 504.755 169.498V188.517Z" fill="white"/>
<path d="M280.209 1.58301H277.674V208.986H280.209V1.58301Z" fill="white"/>
<path d="M33.5713 148.124L0.794922 209.348L65.8045 210.073L33.5713 148.124Z" fill="white"/>
<path d="M228.962 148.124L196.186 209.348L261.195 210.073L228.962 148.124Z" fill="white"/>
<path d="M229.868 1.76403L227.514 0.496094L154.536 141.603L77.2129 1.22063L10.9357 1.94517L122.122 209.891L229.868 1.76403Z" fill="white"/>
<path d="M399.544 8.10377C408.961 17.8852 407.693 32.014 398.458 41.0709C389.585 49.7655 375.822 50.1278 367.13 41.0709C359.162 32.9197 357.533 18.4286 368.398 7.92262C376.547 0.133692 390.309 -1.49654 399.544 8.10377ZM369.122 36.3613C378.358 45.7805 390.49 46.3239 398.458 38.7161C404.977 32.3762 406.607 22.0514 398.096 13.3568C387.412 2.30735 376.003 2.85076 368.036 10.6397C361.698 16.7984 360.068 26.9421 369.122 36.3613Z" fill="white"/>
<path d="M398.458 41.2521C394.112 45.5994 388.498 47.9541 382.522 47.9541C376.547 47.9541 370.933 45.5994 366.768 41.2521C358.981 33.282 356.808 18.791 368.036 7.74155C376.003 0.133762 389.766 -2.03989 399.363 7.74155C408.78 17.3419 408.418 31.6518 398.458 41.2521ZM368.579 8.1038C357.533 18.7909 359.706 33.1008 367.311 40.8898C375.822 49.7655 389.223 49.7655 398.277 40.8898C407.874 31.6517 408.418 17.523 399.363 8.28495C389.947 -1.4965 376.366 0.496005 368.579 8.1038ZM398.639 38.8972C390.49 46.8673 377.995 45.7805 369.122 36.5425C359.162 26.3987 362.422 16.0739 368.217 10.4586C376.909 1.94514 388.498 3.03197 398.458 13.1757C407.15 22.4137 404.615 32.9197 398.639 38.8972ZM368.217 10.6397C362.603 16.0739 359.525 26.2176 369.303 36.1802C378.357 45.4182 390.128 46.3239 398.277 38.535C404.253 32.7386 406.607 22.4137 397.915 13.3568C388.317 3.3942 376.909 2.30737 368.217 10.6397Z" fill="white"/>
<path d="M495.157 7.92243C504.574 17.7039 503.306 31.8327 494.071 40.8896C485.198 49.5842 471.435 49.9464 462.743 40.8896C454.775 32.7383 453.146 18.2473 464.011 7.74134C472.341 -0.0475901 485.922 -1.49674 495.157 7.92243ZM464.916 36.18C474.151 45.5991 486.284 46.1426 494.252 38.5348C500.771 32.195 502.401 21.8701 493.89 13.1755C483.206 2.12607 471.797 2.66948 463.83 10.4584C457.492 16.6171 455.681 26.7608 464.916 36.18Z" fill="white"/>
<path d="M494.252 41.0709C489.906 45.4182 484.292 47.773 478.316 47.773C472.341 47.773 466.727 45.4182 462.562 41.0709C454.775 33.1008 452.602 18.6098 463.83 7.5604C471.797 -0.0473899 485.56 -2.22105 495.157 7.5604C504.574 17.1607 504.031 31.4706 494.252 41.0709ZM464.192 7.92264C453.146 18.6098 455.319 32.9197 462.924 40.7086C471.435 49.5844 484.836 49.5844 493.89 40.7086C503.487 31.4706 504.031 17.3418 494.976 8.10379C485.741 -1.67765 471.979 0.49599 464.192 7.92264ZM494.252 38.7161C486.103 46.6862 473.608 45.5993 464.735 36.3613C454.775 26.2176 458.035 15.8927 463.83 10.2775C472.522 1.76399 484.111 2.85082 494.071 12.9945C502.944 22.2326 500.409 32.7385 494.252 38.7161ZM464.011 10.4586C458.397 15.8928 455.319 26.0364 465.097 35.999C474.152 45.2371 485.922 46.1428 494.071 38.3538C500.047 32.5574 502.401 22.2326 493.709 13.1757C483.93 3.2131 472.522 2.12628 464.011 10.4586Z" fill="white"/>
</svg>
